<svg width="110" height="110" viewBox="0 0 110 110" fill="none" xmlns="http://www.w3.org/2000/svg">
<g filter="url(#filter0_d_388_3283)">
<path fill-rule="evenodd" clip-rule="evenodd" d="M68.4351 38.9806C68.8257 38.59 68.8257 37.9569 68.4351 37.5664C68.0446 37.1758 67.4114 37.1758 67.0209 37.5664L55 49.5873L42.9791 37.5664C42.5886 37.1758 41.9554 37.1758 41.5649 37.5664C41.1743 37.9569 41.1743 38.59 41.5649 38.9806L53.5858 51.0015L41.5651 63.0222C41.1746 63.4127 41.1746 64.0459 41.5651 64.4364C41.9556 64.8269 42.5888 64.8269 42.9793 64.4364L55 52.4157L67.0207 64.4364C67.4112 64.8269 68.0444 64.8269 68.4349 64.4364C68.8254 64.0459 68.8254 63.4127 68.4349 63.0222L56.4142 51.0015L68.4351 38.9806Z" fill="#C5358C"/>
</g>
<defs>
<filter id="filter0_d_388_3283" x="-4" y="-4" width="118" height="118" filterUnits="userSpaceOnUse" color-interpolation-filters="sRGB">
<feFlood flood-opacity="0" result="BackgroundImageFix"/>
<feColorMatrix in="SourceAlpha" type="matrix" values="0 0 0 0 0 0 0 0 0 0 0 0 0 0 0 0 0 0 127 0" result="hardAlpha"/>
<feOffset dy="4"/>
<feGaussianBlur stdDeviation="20.5"/>
<feComposite in2="hardAlpha" operator="out"/>
<feColorMatrix type="matrix" values="0 0 0 0 0 0 0 0 0 0 0 0 0 0 0 0 0 0 0.05 0"/>
<feBlend mode="normal" in2="BackgroundImageFix" result="effect1_dropShadow_388_3283"/>
<feBlend mode="normal" in="SourceGraphic" in2="effect1_dropShadow_388_3283" result="shape"/>
</filter>
</defs>
</svg>
